<svg width="13" height="13" viewBox="0 0 13 13" fill="none" xmlns="http://www.w3.org/2000/svg">
<path fill-rule="evenodd" clip-rule="evenodd" d="M0.21967 0.21967C0.512563 -0.0732233 0.987437 -0.0732233 1.28033 0.21967L6.5 5.43934L11.7197 0.21967C12.0126 -0.0732233 12.4874 -0.0732233 12.7803 0.21967C13.0732 0.512563 13.0732 0.987437 12.7803 1.28033L7.56066 6.5L12.7803 11.7197C13.0732 12.0126 13.0732 12.4874 12.7803 12.7803C12.4874 13.0732 12.0126 13.0732 11.7197 12.7803L6.5 7.56066L1.28033 12.7803C0.987437 13.0732 0.512563 13.0732 0.21967 12.7803C-0.0732233 12.4874 -0.0732233 12.0126 0.21967 11.7197L5.43934 6.5L0.21967 1.28033C-0.0732233 0.987437 -0.0732233 0.512563 0.21967 0.21967Z" fill="#141E35"/>
</svg>
